<svg width="46" height="37" viewBox="0 0 46 37" fill="none" xmlns="http://www.w3.org/2000/svg">
<g filter="url(#filter0_d_1818_11357)">
<line x1="10" y1="22" x2="36" y2="22" stroke="#9E9E9E" stroke-width="4" stroke-linecap="round"/>
</g>
<path d="M22.9982 11.4571C20.5104 11.4571 18.0784 12.2061 16.0098 13.6095C13.9413 15.0128 12.329 17.0075 11.377 19.3411C10.4249 21.6748 10.1758 24.2427 10.6612 26.7201C11.1465 29.1976 12.3445 31.4732 14.1037 33.2593C15.8629 35.0454 18.1042 36.2618 20.5442 36.7546C22.9843 37.2474 25.5134 36.9945 27.8119 36.0278C30.1103 35.0612 32.0749 33.4242 33.457 31.324C34.8392 29.2237 35.5769 26.7545 35.5769 24.2286C35.5737 20.8424 34.2473 17.5958 31.8891 15.2015C29.5308 12.8071 26.3333 11.4604 22.9982 11.4571ZM22.9982 33.4064C21.2104 33.4064 19.4627 32.8682 17.9762 31.8597C16.4897 30.8512 15.3311 29.4178 14.6469 27.7408C13.9627 26.0637 13.7837 24.2184 14.1325 22.438C14.4813 20.6577 15.3422 19.0223 16.6064 17.7388C17.8706 16.4552 19.4812 15.5811 21.2347 15.227C22.9882 14.8729 24.8057 15.0546 26.4574 15.7493C28.1092 16.4439 29.5209 17.6203 30.5142 19.1296C31.5075 20.6389 32.0376 22.4133 32.0376 24.2286C32.0343 26.6617 31.0809 28.9942 29.3864 30.7146C27.6919 32.4351 25.3946 33.4031 22.9982 33.4064ZM41.2257 16.7773C42.1713 19.1443 42.658 21.6743 42.6591 24.2286C42.6591 24.7051 42.4727 25.1621 42.1408 25.4991C41.8089 25.836 41.3588 26.0253 40.8894 26.0253C40.4201 26.0253 39.97 25.836 39.6381 25.4991C39.3062 25.1621 39.1198 24.7051 39.1198 24.2286C39.1198 19.8883 37.4216 15.7258 34.3989 12.6568C31.3762 9.58774 27.2765 7.86357 23.0017 7.86357C18.727 7.86357 14.6273 9.58774 11.6046 12.6568C8.58185 15.7258 6.88371 19.8883 6.88371 24.2286C6.88371 24.7051 6.69726 25.1621 6.36539 25.4991C6.03351 25.836 5.58339 26.0253 5.11405 26.0253C4.64471 26.0253 4.19459 25.836 3.86271 25.4991C3.53084 25.1621 3.34439 24.7051 3.34439 24.2286C3.34242 21.6747 3.82675 19.1445 4.77073 16.7773C3.56848 16.3838 2.49242 15.6695 1.65501 14.7093C0.817604 13.7491 0.249597 12.5781 0.0103563 11.3188C-0.0391458 10.8561 0.0900805 10.392 0.370831 10.0241C0.651581 9.65629 1.06195 9.41338 1.51555 9.34656C1.96915 9.27974 2.4306 9.39421 2.80274 9.66588C3.17488 9.93756 3.42869 10.3452 3.51074 10.8031C3.67506 11.5003 4.03877 12.1326 4.55612 12.6205C5.07347 13.1083 5.72135 13.43 6.41829 13.545C8.1873 10.7156 10.6257 8.38069 13.5111 6.75317C12.4451 5.32322 11.8378 3.59515 11.7715 1.80307C11.7699 1.32654 11.9547 0.868859 12.2854 0.53072C12.6162 0.192581 13.0656 0.00167889 13.535 1.10208e-05C14.0043 -0.00165684 14.4551 0.186045 14.7881 0.521826C15.1212 0.857606 15.3092 1.31396 15.3108 1.79049C15.346 2.4493 15.5141 3.09373 15.8048 3.68379C16.0956 4.27384 16.5027 4.79691 17.0008 5.22053C20.9002 3.94365 25.0962 3.94365 28.9956 5.22053C29.4933 4.79767 29.9001 4.27549 30.1908 3.68638C30.4815 3.09728 30.65 2.4538 30.6856 1.79588C30.7098 1.32691 30.9069 0.884358 31.2377 0.55614C31.5685 0.227922 32.0089 0.0380584 32.4712 0.0242678C32.9378 0.0285315 33.3838 0.219714 33.7122 0.556213C34.0407 0.892711 34.2249 1.34729 34.2249 1.82104C34.1586 3.61312 33.5513 5.34119 32.4853 6.77114C35.3708 8.39866 37.8091 10.7335 39.5781 13.5629C40.2754 13.4475 40.9235 13.1252 41.4409 12.6367C41.9582 12.1482 42.3217 11.5152 42.4857 10.8175C42.5635 10.3512 42.8181 9.93447 43.1948 9.65642C43.5715 9.37836 44.0405 9.2611 44.5013 9.32974C44.9558 9.39839 45.3657 9.64502 45.6432 10.0168C45.9207 10.3886 46.0438 10.856 45.9861 11.3188C45.7468 12.5781 45.1788 13.7491 44.3414 14.7093C43.504 15.6695 42.4279 16.3838 41.2257 16.7773Z" fill="#9E9E9E"/>
<defs>
<filter id="filter0_d_1818_11357" x="2" y="10" width="42" height="16" filterUnits="userSpaceOnUse" color-interpolation-filters="sRGB">
<feFlood flood-opacity="0" result="BackgroundImageFix"/>
<feColorMatrix in="SourceAlpha" type="matrix" values="0 0 0 0 0 0 0 0 0 0 0 0 0 0 0 0 0 0 127 0" result="hardAlpha"/>
<feOffset dy="-4"/>
<feGaussianBlur stdDeviation="3"/>
<feComposite in2="hardAlpha" operator="out"/>
<feColorMatrix type="matrix" values="0 0 0 0 0 0 0 0 0 0 0 0 0 0 0 0 0 0 0.5 0"/>
<feBlend mode="normal" in2="BackgroundImageFix" result="effect1_dropShadow_1818_11357"/>
<feBlend mode="normal" in="SourceGraphic" in2="effect1_dropShadow_1818_11357" result="shape"/>
</filter>
</defs>
</svg>
