<svg width="84" height="65" viewBox="0 0 84 65" fill="none" xmlns="http://www.w3.org/2000/svg">
<path fill-rule="evenodd" clip-rule="evenodd" d="M76.4928 65H7.28502C5.35292 65 3.49994 64.2391 2.13373 62.8846C0.767527 61.5302 0 59.6932 0 57.7778V7.22222C0 5.30677 0.767527 3.46977 2.13373 2.11534C3.49994 0.76091 5.35292 0 7.28502 0H76.4928C78.4249 0 80.2778 0.76091 81.644 2.11534C83.0102 3.46977 83.7778 5.30677 83.7778 7.22222V57.7778C83.7778 59.6932 83.0102 61.5302 81.644 62.8846C80.2778 64.2391 78.4249 65 76.4928 65ZM20.0338 3.61111H7.28502C6.31897 3.61111 5.39248 3.99157 4.70938 4.66878C4.02628 5.346 3.64251 6.2645 3.64251 7.22222V10.8333H20.0338V3.61111ZM40.0676 3.61111H23.6763V10.8333H40.0676V3.61111ZM60.1014 3.61111H43.7101V10.8333H60.1014V3.61111ZM80.1353 7.22222C80.1353 6.2645 79.7515 5.346 79.0684 4.66878C78.3853 3.99157 77.4588 3.61111 76.4928 3.61111H63.744V10.8333H80.1353V7.22222ZM80.1353 14.4444H3.64251V50.5555H80.1353V14.4444ZM80.1353 54.1667H63.744V61.3889H60.1014V54.1667H43.7101V61.3889H40.0676V54.1667H23.6763V61.3889H20.0338V54.1667H3.64251V57.7778C3.64251 58.7355 4.02628 59.654 4.70938 60.3312C5.39248 61.0084 6.31897 61.3889 7.28502 61.3889H76.4928C77.4588 61.3889 78.3853 61.0084 79.0684 60.3312C79.7515 59.654 80.1353 58.7355 80.1353 57.7778V54.1667ZM37.5561 42.909C37.2399 43.1757 36.8402 43.3256 36.4251 43.3333C35.9421 43.3333 35.4789 43.1431 35.1373 42.8045C34.7957 42.4659 34.6039 42.0066 34.6039 41.5278V23.4722C34.6039 22.9934 34.7957 22.5341 35.1373 22.1955C35.4789 21.8569 35.9421 21.6667 36.4251 21.6667C36.813 21.6667 37.1536 21.8147 37.4505 22.0206L51.6035 30.8172C51.9566 30.9385 52.2631 31.1656 52.4804 31.467C52.6977 31.7685 52.8151 32.1295 52.8164 32.5C52.8133 32.7764 52.7449 33.0482 52.6168 33.2936C52.4887 33.5391 52.3045 33.7515 52.0788 33.9137L37.5561 42.909Z" fill="#FF0000"/>
</svg>
