<svg width="42" height="39" viewBox="0 0 42 39" fill="none" xmlns="http://www.w3.org/2000/svg">
<path d="M39.7895 6.37778H37.5789V4.25185C37.5789 3.68802 37.3461 3.14729 36.9315 2.7486C36.5169 2.34991 35.9547 2.12593 35.3684 2.12593C34.7822 2.12593 34.2199 2.34991 33.8053 2.7486C33.3908 3.14729 33.1579 3.68802 33.1579 4.25185V6.37778H30.9474C30.3611 6.37778 29.7988 6.60176 29.3843 7.00045C28.9697 7.39914 28.7368 7.93988 28.7368 8.50371C28.7368 9.06754 28.9697 9.60827 29.3843 10.007C29.7988 10.4057 30.3611 10.6296 30.9474 10.6296H33.1579V12.7556C33.1579 13.3194 33.3908 13.8601 33.8053 14.2588C34.2199 14.6575 34.7822 14.8815 35.3684 14.8815C35.9547 14.8815 36.5169 14.6575 36.9315 14.2588C37.3461 13.8601 37.5789 13.3194 37.5789 12.7556V10.6296H39.7895C40.3757 10.6296 40.938 10.4057 41.3526 10.007C41.7671 9.60827 42 9.06754 42 8.50371C42 7.93988 41.7671 7.39914 41.3526 7.00045C40.938 6.60176 40.3757 6.37778 39.7895 6.37778ZM15.4737 17.0074C17.2225 17.0074 18.932 16.5087 20.3861 15.5743C21.8402 14.6399 22.9735 13.3118 23.6427 11.7579C24.312 10.2041 24.4871 8.49427 24.1459 6.84472C23.8047 5.19516 22.9626 3.67994 21.726 2.49068C20.4894 1.30142 18.9139 0.491517 17.1987 0.1634C15.4835 -0.164717 13.7056 0.00368449 12.09 0.64731C10.4743 1.29093 9.09332 2.38088 8.12174 3.7793C7.15016 5.17773 6.63158 6.82183 6.63158 8.50371C6.63158 10.759 7.56315 12.922 9.22137 14.5167C10.8796 16.1115 13.1286 17.0074 15.4737 17.0074ZM15.4737 4.25185C16.3481 4.25185 17.2029 4.50122 17.9299 4.96842C18.6569 5.43562 19.2236 6.09967 19.5582 6.87659C19.8928 7.65352 19.9804 8.50842 19.8098 9.3332C19.6392 10.158 19.2181 10.9156 18.5998 11.5102C17.9815 12.1049 17.1938 12.5098 16.3362 12.6739C15.4786 12.8379 14.5897 12.7537 13.7818 12.4319C12.974 12.1101 12.2835 11.5651 11.7977 10.8659C11.3119 10.1667 11.0526 9.34464 11.0526 8.50371C11.0526 7.37605 11.5184 6.29457 12.3475 5.49719C13.1766 4.69982 14.3011 4.25185 15.4737 4.25185ZM15.4737 21.2593C11.3698 21.2593 7.43402 22.8271 4.53214 25.6179C1.63026 28.4088 0 32.1939 0 36.1407C0 36.7046 0.232894 37.2453 0.647448 37.644C1.062 38.0427 1.62426 38.2667 2.21053 38.2667C2.79679 38.2667 3.35905 38.0427 3.7736 37.644C4.18816 37.2453 4.42105 36.7046 4.42105 36.1407C4.42105 33.3216 5.58552 30.6179 7.65829 28.6245C9.73106 26.631 12.5423 25.5111 15.4737 25.5111C18.405 25.5111 21.2163 26.631 23.2891 28.6245C25.3618 30.6179 26.5263 33.3216 26.5263 36.1407C26.5263 36.7046 26.7592 37.2453 27.1738 37.644C27.5883 38.0427 28.1506 38.2667 28.7368 38.2667C29.3231 38.2667 29.8854 38.0427 30.2999 37.644C30.7145 37.2453 30.9474 36.7046 30.9474 36.1407C30.9474 32.1939 29.3171 28.4088 26.4152 25.6179C23.5134 22.8271 19.5776 21.2593 15.4737 21.2593Z" fill="white"/>
</svg>
