<svg width="22" height="19" viewBox="0 0 22 19" fill="none" xmlns="http://www.w3.org/2000/svg">
<path d="M0.802063 18.4902C0.717639 18.4907 0.633724 18.4771 0.553721 18.4502C0.386412 18.3958 0.241633 18.288 0.141732 18.1432C0.0418304 17.9984 -0.00763953 17.8248 0.0009578 17.6491C0.0009578 17.5289 0.826096 5.89684 12.4902 4.98358V0.801807C12.4901 0.642538 12.5374 0.486842 12.6262 0.354604C12.7149 0.222367 12.8411 0.119592 12.9886 0.0594041C13.136 -0.000783326 13.2981 -0.0156505 13.454 0.0167015C13.61 0.0490534 13.7527 0.127156 13.8641 0.241034L21.771 8.31618C21.9178 8.46593 22 8.66726 22 8.87695C22 9.08664 21.9178 9.28798 21.771 9.43773L13.8641 17.5129C13.7527 17.6267 13.61 17.7048 13.454 17.7372C13.2981 17.7696 13.136 17.7547 12.9886 17.6945C12.8411 17.6343 12.7149 17.5315 12.6262 17.3993C12.5374 17.2671 12.4901 17.1114 12.4902 16.9521V12.8504C4.70345 13.1468 1.51104 18.0576 1.479 18.1177C1.40672 18.2318 1.30676 18.3258 1.18841 18.391C1.07006 18.4561 0.937154 18.4902 0.802063 18.4902ZM14.0924 2.76452V5.73261C14.0925 5.94031 14.012 6.13994 13.8678 6.28939C13.7235 6.43885 13.5269 6.52645 13.3193 6.53372C5.77292 6.8101 3.0732 11.837 2.10386 15.0695C4.10662 13.3391 7.67555 11.2242 13.2432 11.2242H13.2793C13.4917 11.2242 13.6955 11.3086 13.8457 11.4588C13.996 11.6091 14.0804 11.8128 14.0804 12.0253V14.9934L20.0887 8.88096L14.0924 2.76452Z" fill="white"/>
</svg>
