<svg width="611" height="236" viewBox="0 0 611 236" fill="none" xmlns="http://www.w3.org/2000/svg">
<path d="M0 53.7441H15.4536V235.535H0V53.7441Z" fill="#BADD58"/>
<path d="M20.5361 181.791H35.9897V235.535H20.5361V181.791Z" fill="#BADD58"/>
<path d="M41.0722 119.53H56.5258V235.535H41.0722V119.53Z" fill="#BADD58"/>
<path d="M61.6083 107.195H77.0618V235.535H61.6083V107.195Z" fill="#BADD58"/>
<path d="M82.1443 46.9892H97.5979V235.535H82.1443V46.9892Z" fill="#BADD58"/>
<path d="M102.68 176.798H118.134V235.535H102.68V176.798Z" fill="#BADD58"/>
<path d="M123.217 153.597H138.67V235.535H123.217V153.597Z" fill="#BADD58"/>
<path d="M143.753 72.2465H159.206V235.535H143.753V72.2465Z" fill="#BADD58"/>
<path d="M164.289 93.3923H179.742V235.536H164.289V93.3923Z" fill="#BADD58"/>
<path d="M184.825 92.5112H200.278V235.536H184.825V92.5112Z" fill="#BADD58"/>
<path d="M205.361 159.471H220.814V235.535H205.361V159.471Z" fill="#BADD58"/>
<path d="M225.897 22.907H241.351V235.535H225.897V22.907Z" fill="#BADD58"/>
<path d="M246.433 0H261.887V235.535H246.433V0Z" fill="#BADD58"/>
<path d="M266.969 191.482H282.423V235.535H266.969V191.482Z" fill="#BADD58"/>
<path d="M287.505 127.166H302.959V235.535H287.505V127.166Z" fill="#BADD58"/>
<path d="M308.041 9.69128H323.495V235.535H308.041V9.69128Z" fill="#BADD58"/>
<path d="M328.577 44.9339H344.031V235.535H328.577V44.9339Z" fill="#BADD58"/>
<path d="M349.113 141.263H364.567V235.535H349.113V141.263Z" fill="#BADD58"/>
<path d="M369.65 13.2157H385.103V235.535H369.65V13.2157Z" fill="#BADD58"/>
<path d="M390.186 136.564H405.639V235.536H390.186V136.564Z" fill="#BADD58"/>
<path d="M410.722 183.553H426.175V235.535H410.722V183.553Z" fill="#BADD58"/>
<path d="M431.258 140.969H446.711V235.535H431.258V140.969Z" fill="#BADD58"/>
<path d="M451.794 186.784H467.247V235.535H451.794V186.784Z" fill="#BADD58"/>
<path d="M472.33 133.921H487.784V235.536H472.33V133.921Z" fill="#BADD58"/>
<path d="M492.866 73.7147H508.32V235.535H492.866V73.7147Z" fill="#BADD58"/>
<path d="M513.402 106.314H528.856V235.535H513.402V106.314Z" fill="#BADD58"/>
<path d="M533.938 17.0333H549.392V235.535H533.938V17.0333Z" fill="#BADD58"/>
<path d="M554.474 116.593H569.928V235.536H554.474V116.593Z" fill="#BADD58"/>
<path d="M575.01 78.1203H590.464V235.535H575.01V78.1203Z" fill="#BADD58"/>
<path d="M595.546 140.969H611V235.535H595.546V140.969Z" fill="#BADD58"/>
</svg>
