<svg width="25" height="25" viewBox="0 0 25 25" fill="none" xmlns="http://www.w3.org/2000/svg">
<path d="M23.8594 21.8449V12.8428C23.8595 12.2165 23.7317 11.5968 23.4838 11.0216C23.236 10.4464 22.8734 9.92788 22.4181 9.49776L13.9371 1.48259C13.5099 1.07876 12.9444 0.853751 12.3566 0.853751C11.7688 0.853751 11.2032 1.07876 10.7761 1.48259L2.29506 9.49776C1.8398 9.92788 1.47715 10.4464 1.22932 11.0216C0.981482 11.5968 0.853685 12.2165 0.853751 12.8428V21.8449C0.853751 22.455 1.09613 23.0402 1.52757 23.4716C1.95901 23.9031 2.54417 24.1455 3.15432 24.1455H21.5588C22.169 24.1455 22.7541 23.9031 23.1856 23.4716C23.617 23.0402 23.8594 22.455 23.8594 21.8449Z" stroke="white" stroke-width="1.66667" stroke-linecap="round" stroke-linejoin="round"/>
</svg>
