<svg width="25" height="25" viewBox="0 0 25 25" fill="none" xmlns="http://www.w3.org/2000/svg">
<path d="M23.8597 21.8459V12.8438C23.8598 12.2175 23.732 11.5978 23.4842 11.0226C23.2363 10.4474 22.8737 9.92888 22.4184 9.49876L13.9374 1.48359C13.5102 1.07976 12.9447 0.854752 12.3569 0.854752C11.7691 0.854752 11.2035 1.07976 10.7764 1.48359L2.29537 9.49876C1.84011 9.92888 1.47746 10.4474 1.22963 11.0226C0.981795 11.5978 0.853998 12.2175 0.854064 12.8438V21.8459C0.854064 22.456 1.09644 23.0412 1.52788 23.4726C1.95932 23.9041 2.54448 24.1465 3.15463 24.1465H21.5592C22.1693 24.1465 22.7545 23.9041 23.1859 23.4726C23.6173 23.0412 23.8597 22.456 23.8597 21.8459Z" stroke="#494949" stroke-width="1.66667" stroke-linecap="round" stroke-linejoin="round"/>
</svg>
