<svg width="427" height="432" viewBox="0 0 427 432" fill="none" xmlns="http://www.w3.org/2000/svg">
<rect width="426" height="432" rx="10" fill="#0D0D0D"/>
<rect width="426.667" height="240" rx="10" fill="#E3BFFF"/>
<path fill-rule="evenodd" clip-rule="evenodd" d="M260.913 165H165.087C162.412 165 159.846 163.946 157.954 162.071C156.063 160.196 155 157.652 155 155V85C155 82.3478 156.063 79.8043 157.954 77.9289C159.846 76.0536 162.412 75 165.087 75H260.913C263.588 75 266.154 76.0536 268.046 77.9289C269.937 79.8043 271 82.3478 271 85V155C271 157.652 269.937 160.196 268.046 162.071C266.154 163.946 263.588 165 260.913 165ZM182.739 80H165.087C163.749 80 162.467 80.5268 161.521 81.4645C160.575 82.4021 160.043 83.6739 160.043 85V90H182.739V80ZM210.478 80H187.783V90H210.478V80ZM238.217 80H215.522V90H238.217V80ZM265.957 85C265.957 83.6739 265.425 82.4021 264.479 81.4645C263.533 80.5268 262.251 80 260.913 80H243.261V90H265.957V85ZM265.957 95H160.043V145H265.957V95ZM265.957 150H243.261V160H238.217V150H215.522V160H210.478V150H187.783V160H182.739V150H160.043V155C160.043 156.326 160.575 157.598 161.521 158.536C162.467 159.473 163.749 160 165.087 160H260.913C262.251 160 263.533 159.473 264.479 158.536C265.425 157.598 265.957 156.326 265.957 155V150ZM207.001 134.412C206.563 134.782 206.01 134.989 205.435 135C204.766 135 204.125 134.737 203.652 134.268C203.179 133.799 202.913 133.163 202.913 132.5V107.5C202.913 106.837 203.179 106.201 203.652 105.732C204.125 105.263 204.766 105 205.435 105C205.972 105 206.443 105.205 206.855 105.49L226.451 117.67C226.94 117.838 227.364 118.152 227.665 118.57C227.966 118.987 228.129 119.487 228.13 120C228.126 120.383 228.031 120.759 227.854 121.099C227.677 121.439 227.422 121.733 227.109 121.958L207.001 134.412Z" fill="#8F00FF"/>
<path d="M22.5 281.5H366" stroke="#E3BFFF" stroke-width="17" stroke-linecap="round"/>
<path d="M22 312H244" stroke="#E3BFFF" stroke-width="17" stroke-linecap="round"/>
<path d="M22 342H155" stroke="#B65AFF" stroke-width="17" stroke-linecap="round"/>
<path d="M309 384L373 384" stroke="#B65AFF" stroke-width="35" stroke-linecap="round"/>
</svg>
