<svg width="38" height="38" viewBox="0 0 38 38" fill="none" xmlns="http://www.w3.org/2000/svg">
<path d="M38 19C38 8.50659 29.4934 0 19 0C8.50659 0 0 8.50659 0 19C0 28.4834 6.94803 36.3438 16.0312 37.7691V24.4922H11.207V19H16.0312V14.8141C16.0312 10.0522 18.8678 7.42188 23.2078 7.42188C25.2866 7.42188 27.4609 7.79297 27.4609 7.79297V12.4688H25.0651C22.7048 12.4688 21.9688 13.9333 21.9688 15.4359V19H27.2383L26.3959 24.4922H21.9688V37.7691C31.052 36.3438 38 28.4834 38 19Z" fill="#1877F2"/>
<path d="M26.3959 24.4922L27.2383 19H21.9688V15.4359C21.9688 13.9333 22.7048 12.4688 25.0651 12.4688H27.4609V7.79297C27.4609 7.79297 25.2866 7.42188 23.2078 7.42188C18.8678 7.42188 16.0312 10.0522 16.0312 14.8141V19H11.207V24.4922H16.0312V37.7691C17.9984 38.077 20.0016 38.077 21.9688 37.7691V24.4922H26.3959Z" fill="white"/>
</svg>
