<svg width="28" height="31" viewBox="0 0 28 31" fill="none" xmlns="http://www.w3.org/2000/svg">
<path d="M24.5 10.5002H1.16667C0.857247 10.5002 0.560501 10.3772 0.341709 10.1585C0.122917 9.93966 0 9.64291 0 9.33349V3.50016C0 3.19074 0.122917 2.894 0.341709 2.6752C0.560501 2.45641 0.857247 2.3335 1.16667 2.3335H24.5C24.8094 2.3335 25.1062 2.45641 25.325 2.6752C25.5437 2.894 25.6667 3.19074 25.6667 3.50016V9.33349C25.6667 9.64291 25.5437 9.93966 25.325 10.1585C25.1062 10.3772 24.8094 10.5002 24.5 10.5002ZM2.33333 8.16683H23.3333V4.66683H2.33333V8.16683Z" fill="white"/>
<path d="M19.8333 7C19.5239 7 19.2271 6.87708 19.0083 6.65829C18.7895 6.4395 18.6666 6.14275 18.6666 5.83333V1.16667C18.6666 0.857247 18.7895 0.560501 19.0083 0.341709C19.2271 0.122916 19.5239 0 19.8333 0C20.1427 0 20.4395 0.122916 20.6582 0.341709C20.877 0.560501 21 0.857247 21 1.16667V5.83333C21 6.14275 20.877 6.4395 20.6582 6.65829C20.4395 6.87708 20.1427 7 19.8333 7ZM5.83329 7C5.52387 7 5.22713 6.87708 5.00833 6.65829C4.78954 6.4395 4.66663 6.14275 4.66663 5.83333V1.16667C4.66663 0.857247 4.78954 0.560501 5.00833 0.341709C5.22713 0.122916 5.52387 0 5.83329 0C6.14271 0 6.43946 0.122916 6.65825 0.341709C6.87704 0.560501 6.99996 0.857247 6.99996 1.16667V5.83333C6.99996 6.14275 6.87704 6.4395 6.65825 6.65829C6.43946 6.87708 6.14271 7 5.83329 7Z" fill="white"/>
<path d="M14 28.0002H3.5C2.57174 28.0002 1.6815 27.6314 1.02513 26.975C0.368749 26.3187 0 25.4284 0 24.5002V3.50016C0 3.19074 0.122917 2.894 0.341709 2.67521C0.560501 2.45641 0.857247 2.3335 1.16667 2.3335H24.5C24.8094 2.3335 25.1062 2.45641 25.325 2.67521C25.5437 2.894 25.6667 3.19074 25.6667 3.50016V16.3335C25.6667 16.6429 25.5437 16.9397 25.325 17.1585C25.1062 17.3772 24.8094 17.5002 24.5 17.5002C24.1906 17.5002 23.8938 17.3772 23.675 17.1585C23.4562 16.9397 23.3333 16.6429 23.3333 16.3335V4.66683H2.33333V24.5002C2.33333 24.8096 2.45625 25.1063 2.67504 25.3251C2.89383 25.5439 3.19058 25.6668 3.5 25.6668H14C14.3094 25.6668 14.6062 25.7897 14.825 26.0085C15.0437 26.2273 15.1667 26.5241 15.1667 26.8335C15.1667 27.1429 15.0437 27.4397 14.825 27.6585C14.6062 27.8772 14.3094 28.0002 14 28.0002Z" fill="white"/>
<path d="M19.8333 30.3333C18.2181 30.3333 16.6391 29.8544 15.2961 28.957C13.9531 28.0596 12.9064 26.7842 12.2883 25.2919C11.6702 23.7997 11.5084 22.1576 11.8235 20.5734C12.1387 18.9893 12.9165 17.5341 14.0586 16.392C15.2007 15.2498 16.6559 14.472 18.2401 14.1569C19.8242 13.8418 21.4663 14.0035 22.9585 14.6217C24.4508 15.2398 25.7263 16.2865 26.6236 17.6295C27.521 18.9725 28 20.5515 28 22.1667C28 24.3326 27.1395 26.4098 25.608 27.9414C24.0765 29.4729 21.9992 30.3333 19.8333 30.3333ZM19.8333 16.3333C18.6796 16.3333 17.5518 16.6755 16.5925 17.3164C15.6332 17.9574 14.8855 18.8684 14.444 19.9343C14.0025 21.0003 13.887 22.1731 14.112 23.3047C14.3371 24.4363 14.8927 25.4757 15.7085 26.2915C16.5243 27.1073 17.5637 27.6628 18.6953 27.8879C19.8268 28.113 20.9997 27.9975 22.0656 27.556C23.1315 27.1145 24.0426 26.3668 24.6835 25.4075C25.3245 24.4482 25.6666 23.3204 25.6666 22.1667C25.6666 20.6196 25.052 19.1358 23.9581 18.0419C22.8641 16.9479 21.3804 16.3333 19.8333 16.3333Z" fill="white"/>
<path d="M23.3333 23.3333H19.8333C19.5239 23.3333 19.2271 23.2104 19.0083 22.9916C18.7895 22.7728 18.6666 22.4761 18.6666 22.1667V17.5H21V21H23.3333V23.3333Z" fill="white"/>
</svg>
