<svg width="48" height="25" viewBox="0 0 48 25" fill="none" xmlns="http://www.w3.org/2000/svg">
<path d="M29.5871 10.7368C25.9406 9.48582 21.9797 9.49484 18.3389 10.7624C18.0743 10.8569 17.8388 11.0187 17.6556 11.2318C17.4725 11.4449 17.348 11.702 17.2944 11.9779L16.0905 18.0012C16.0372 18.2675 15.9183 18.5164 15.7446 18.7253C15.5709 18.9342 15.3478 19.0964 15.0956 19.1973L5.4379 23.0604C5.11069 23.1925 4.74942 23.2146 4.40851 23.1236C4.0676 23.0325 3.76553 22.8331 3.5478 22.5554C2.08945 20.6697 1.36844 18.3171 1.51978 15.9381C1.67111 13.559 2.68441 11.3167 4.36995 9.63103C9.57616 4.42482 16.6373 1.5 24 1.5C31.3627 1.5 38.4238 4.42482 43.63 9.63103C45.3156 11.3167 46.3289 13.559 46.4802 15.9381C46.6316 18.3171 45.9105 20.6697 44.4522 22.5554C44.2345 22.8331 43.9324 23.0325 43.5915 23.1236C43.2506 23.2146 42.8893 23.1925 42.5621 23.0604L32.896 19.1939C32.646 19.0939 32.4245 18.9336 32.2515 18.7273C32.0784 18.521 31.959 18.2751 31.9039 18.0116L30.6362 11.9412C30.5804 11.6669 30.4544 11.4117 30.2706 11.2006C30.0867 10.9895 29.8512 10.8297 29.5871 10.7368Z" stroke="white" stroke-width="3" stroke-linecap="round" stroke-linejoin="round"/>
</svg>
