<svg width="30" height="24" viewBox="0 0 30 24" fill="none" xmlns="http://www.w3.org/2000/svg">
<path d="M24.6631 6.31531C23.7459 4.20757 22.1628 2.45872 20.1565 1.33677C18.1502 0.214811 15.8314 -0.218366 13.5554 0.103617C11.2793 0.4256 9.17166 1.48498 7.55531 3.11942C5.93896 4.75386 4.90311 6.8732 4.60648 9.15267C3.17517 9.49544 1.91958 10.3519 1.07815 11.5595C0.23673 12.767 -0.131931 14.2415 0.0421833 15.7029C0.216297 17.1644 0.92106 18.511 2.02263 19.487C3.12421 20.4631 4.54587 21.0006 6.01765 20.9975C6.41581 20.9975 6.79765 20.8393 7.07919 20.5578C7.36073 20.2763 7.5189 19.8944 7.5189 19.4963C7.5189 19.0981 7.36073 18.7163 7.07919 18.4347C6.79765 18.1532 6.41581 17.995 6.01765 17.995C5.22134 17.995 4.45764 17.6787 3.89457 17.1156C3.33149 16.5525 3.01516 15.7888 3.01516 14.9925C3.01516 14.1962 3.33149 13.4325 3.89457 12.8694C4.45764 12.3064 5.22134 11.99 6.01765 11.99C6.41581 11.99 6.79765 11.8319 7.07919 11.5503C7.36073 11.2688 7.5189 10.8869 7.5189 10.4888C7.52273 8.71322 8.15586 6.99651 9.30579 5.64363C10.4557 4.29075 12.048 3.38931 13.7997 3.09945C15.5515 2.8096 17.3493 3.15009 18.8737 4.06045C20.3981 4.97081 21.5505 6.39209 22.126 8.07177C22.2118 8.32975 22.3661 8.55957 22.5723 8.73672C22.7786 8.91387 23.029 9.03169 23.297 9.07761C24.2969 9.26657 25.2034 9.7886 25.8687 10.5586C26.534 11.3287 26.9189 12.3013 26.9606 13.3181C27.0024 14.3349 26.6986 15.3358 26.0988 16.1578C25.4989 16.9799 24.6384 17.5745 23.6573 17.8449C23.2711 17.9444 22.9402 18.1933 22.7375 18.5368C22.5348 18.8803 22.4769 19.2902 22.5764 19.6764C22.6759 20.0626 22.9248 20.3935 23.2683 20.5962C23.6118 20.7989 24.0217 20.8568 24.4079 20.7573C25.9878 20.3398 27.3883 19.4182 28.3967 18.1323C29.4052 16.8465 29.9664 15.2667 29.9953 13.6328C30.0242 11.9989 29.5191 10.4003 28.5567 9.07959C27.5944 7.75891 26.2273 6.78835 24.6631 6.31531ZM16.091 9.42289C15.9482 9.28622 15.7799 9.17908 15.5956 9.10763C15.2301 8.95748 14.8202 8.95748 14.4547 9.10763C14.2704 9.17908 14.102 9.28622 13.9592 9.42289L9.45551 13.9266C9.17282 14.2093 9.014 14.5927 9.014 14.9925C9.014 15.3923 9.17282 15.7757 9.45551 16.0584C9.7382 16.3411 10.1216 16.4999 10.5214 16.4999C10.9212 16.4999 11.3046 16.3411 11.5873 16.0584L13.5239 14.1068V22.4988C13.5239 22.8969 13.6821 23.2788 13.9636 23.5603C14.2451 23.8418 14.627 24 15.0251 24C15.4233 24 15.8051 23.8418 16.0867 23.5603C16.3682 23.2788 16.5264 22.8969 16.5264 22.4988V14.1068L18.463 16.0584C18.6025 16.1991 18.7686 16.3108 18.9515 16.387C19.1345 16.4632 19.3307 16.5025 19.5289 16.5025C19.7271 16.5025 19.9233 16.4632 20.1062 16.387C20.2892 16.3108 20.4552 16.1991 20.5948 16.0584C20.7355 15.9188 20.8472 15.7528 20.9234 15.5699C20.9996 15.3869 21.0388 15.1907 21.0388 14.9925C21.0388 14.7943 20.9996 14.5981 20.9234 14.4152C20.8472 14.2322 20.7355 14.0662 20.5948 13.9266L16.091 9.42289Z" fill="#494949"/>
</svg>
