<svg width="38" height="31" viewBox="0 0 38 31" fill="none" xmlns="http://www.w3.org/2000/svg">
<path d="M38 3.70614C36.5718 4.32572 35.0615 4.7353 33.516 4.92214C35.1465 3.94805 36.3684 2.41563 36.955 0.609141C35.4227 1.52126 33.7454 2.1639 31.996 2.50914C30.8266 1.24103 29.2694 0.396904 27.5686 0.109158C25.8678 -0.178587 24.1196 0.106322 22.5982 0.9192C21.0768 1.73208 19.8682 3.02695 19.162 4.60073C18.4557 6.17451 18.2919 7.93818 18.696 9.61514C15.5979 9.45844 12.5674 8.65175 9.80144 7.24748C7.03545 5.8432 4.59581 3.87276 2.641 1.46414C1.95536 2.66146 1.59509 4.0174 1.596 5.39714C1.59357 6.67847 1.90801 7.94051 2.51133 9.07091C3.11466 10.2013 3.98813 11.165 5.054 11.8761C3.81516 11.8424 2.60278 11.51 1.52 10.9071V11.0021C1.52929 12.7974 2.15839 14.5344 3.3009 15.9193C4.44341 17.3041 6.02919 18.2519 7.79 18.6021C7.11219 18.8084 6.40846 18.9172 5.7 18.9251C5.20959 18.9194 4.7204 18.8749 4.237 18.7921C4.73843 20.3365 5.70878 21.6861 7.01304 22.6532C8.3173 23.6204 9.89059 24.1569 11.514 24.1881C8.77269 26.3451 5.38818 27.5224 1.9 27.5321C1.2649 27.5342 0.630298 27.4961 0 27.4181C3.56141 29.7176 7.71174 30.9383 11.951 30.9331C14.8764 30.9635 17.7786 30.4107 20.4879 29.3069C23.1973 28.2031 25.6595 26.5705 27.7309 24.5045C29.8022 22.4384 31.4411 19.9804 32.5519 17.2739C33.6626 14.5673 34.2229 11.6666 34.2 8.74114C34.2 8.41814 34.2 8.07614 34.2 7.73414C35.6909 6.62228 36.9768 5.25925 38 3.70614Z" fill="#1877F2"/>
</svg>
