<svg width="16" height="16" viewBox="0 0 16 16" fill="none" xmlns="http://www.w3.org/2000/svg">
<path fill-rule="evenodd" clip-rule="evenodd" d="M8.00009 2.00777C7.81754 1.98266 7.62552 2.03539 7.47813 2.16879L2.21113 6.93545C1.94747 7.17406 1.92615 7.58086 2.16342 7.84573C2.4024 8.1125 2.81277 8.134 3.07833 7.89368L3.47398 7.53561V12.7047V13C3.47398 13.5523 3.92169 14 4.47397 14H4.76273H11.2065H11.4952C12.0475 14 12.4952 13.5523 12.4952 13V12.7047V7.50758L12.9219 7.89368C13.1874 8.134 13.5978 8.1125 13.8368 7.84573C14.074 7.58086 14.0527 7.17406 13.7891 6.93545L8.52206 2.16879C8.37466 2.03539 8.18265 1.98266 8.00009 2.00777ZM4.76273 6.36929V7.22798V8.18566V8.22798V10.7047V12V12.0423V12.7047H5.42965H5.47398H6.76273H9.20648H10.4952H10.5396H11.2065V12.0423V12V10.7047V8.22798V8.18566V7.22798V6.34125L8.00009 3.43945L4.76273 6.36929Z" fill="white"/>
</svg>
