<svg width="28" height="31" viewBox="0 0 28 31" fill="none" xmlns="http://www.w3.org/2000/svg">
<path d="M24.5 10.5006H1.16667C0.857247 10.5006 0.560501 10.3777 0.341709 10.1589C0.122917 9.94015 0 9.6434 0 9.33398V3.50065C0 3.19123 0.122917 2.89449 0.341709 2.67569C0.560501 2.4569 0.857247 2.33398 1.16667 2.33398H24.5C24.8094 2.33398 25.1062 2.4569 25.325 2.67569C25.5437 2.89449 25.6667 3.19123 25.6667 3.50065V9.33398C25.6667 9.6434 25.5437 9.94015 25.325 10.1589C25.1062 10.3777 24.8094 10.5006 24.5 10.5006ZM2.33333 8.16732H23.3333V4.66732H2.33333V8.16732Z" fill="#494949"/>
<path d="M19.8334 7C19.5239 7 19.2272 6.87708 19.0084 6.65829C18.7896 6.4395 18.6667 6.14275 18.6667 5.83333V1.16667C18.6667 0.857247 18.7896 0.560501 19.0084 0.341709C19.2272 0.122916 19.5239 0 19.8334 0C20.1428 0 20.4395 0.122916 20.6583 0.341709C20.8771 0.560501 21 0.857247 21 1.16667V5.83333C21 6.14275 20.8771 6.4395 20.6583 6.65829C20.4395 6.87708 20.1428 7 19.8334 7ZM5.83335 7C5.52393 7 5.22719 6.87708 5.0084 6.65829C4.7896 6.4395 4.66669 6.14275 4.66669 5.83333V1.16667C4.66669 0.857247 4.7896 0.560501 5.0084 0.341709C5.22719 0.122916 5.52393 0 5.83335 0C6.14277 0 6.43952 0.122916 6.65831 0.341709C6.8771 0.560501 7.00002 0.857247 7.00002 1.16667V5.83333C7.00002 6.14275 6.8771 6.4395 6.65831 6.65829C6.43952 6.87708 6.14277 7 5.83335 7Z" fill="#494949"/>
<path d="M14 28.0006H3.5C2.57174 28.0006 1.6815 27.6319 1.02513 26.9755C0.368749 26.3191 0 25.4289 0 24.5006V3.50065C0 3.19123 0.122917 2.89449 0.341709 2.67569C0.560501 2.4569 0.857247 2.33398 1.16667 2.33398H24.5C24.8094 2.33398 25.1062 2.4569 25.325 2.67569C25.5437 2.89449 25.6667 3.19123 25.6667 3.50065V16.334C25.6667 16.6434 25.5437 16.9401 25.325 17.1589C25.1062 17.3777 24.8094 17.5006 24.5 17.5006C24.1906 17.5006 23.8938 17.3777 23.675 17.1589C23.4562 16.9401 23.3333 16.6434 23.3333 16.334V4.66732H2.33333V24.5006C2.33333 24.8101 2.45625 25.1068 2.67504 25.3256C2.89383 25.5444 3.19058 25.6673 3.5 25.6673H14C14.3094 25.6673 14.6062 25.7902 14.825 26.009C15.0437 26.2278 15.1667 26.5246 15.1667 26.834C15.1667 27.1434 15.0437 27.4401 14.825 27.6589C14.6062 27.8777 14.3094 28.0006 14 28.0006Z" fill="#494949"/>
<path d="M19.8334 30.3333C18.2181 30.3333 16.6392 29.8544 15.2962 28.957C13.9532 28.0596 12.9065 26.7842 12.2883 25.2919C11.6702 23.7997 11.5085 22.1576 11.8236 20.5734C12.1387 18.9893 12.9165 17.5341 14.0587 16.392C15.2008 15.2498 16.6559 14.472 18.2401 14.1569C19.8243 13.8418 21.4663 14.0035 22.9586 14.6217C24.4509 15.2398 25.7263 16.2865 26.6237 17.6295C27.5211 18.9725 28 20.5515 28 22.1667C28 24.3326 27.1396 26.4098 25.6081 27.9414C24.0765 29.4729 21.9993 30.3333 19.8334 30.3333ZM19.8334 16.3333C18.6796 16.3333 17.5518 16.6755 16.5925 17.3164C15.6332 17.9574 14.8856 18.8684 14.4441 19.9343C14.0025 21.0003 13.887 22.1731 14.1121 23.3047C14.3372 24.4363 14.8928 25.4757 15.7086 26.2915C16.5244 27.1073 17.5638 27.6628 18.6953 27.8879C19.8269 28.113 20.9998 27.9975 22.0657 27.556C23.1316 27.1145 24.0426 26.3668 24.6836 25.4075C25.3246 24.4482 25.6667 23.3204 25.6667 22.1667C25.6667 20.6196 25.0521 19.1358 23.9581 18.0419C22.8642 16.9479 21.3805 16.3333 19.8334 16.3333Z" fill="#494949"/>
<path d="M23.3334 23.3333H19.8334C19.5239 23.3333 19.2272 23.2104 19.0084 22.9916C18.7896 22.7728 18.6667 22.4761 18.6667 22.1667V17.5H21V21H23.3334V23.3333Z" fill="#494949"/>
</svg>
