<svg width="22" height="22" viewBox="0 0 22 22" fill="none" xmlns="http://www.w3.org/2000/svg">
<path d="M1.09961 13.167V19.767C1.09961 20.9803 2.08631 21.967 3.29961 21.967H9.89961V13.167H1.09961Z" fill="#494949"/>
<path d="M12.0996 13.167V21.967H18.6996C19.9129 21.967 20.8996 20.9803 20.8996 19.767V13.167H12.0996Z" fill="#494949"/>
<path d="M19.8 6.56714H16.3746C16.8738 6.31646 17.3319 5.99115 17.7331 5.60244C18.3508 4.98265 18.6977 4.14328 18.6977 3.26824C18.6977 2.39319 18.3508 1.55382 17.7331 0.934038C16.4857 -0.310063 14.3154 -0.311163 13.0669 0.935137C11.2673 2.73584 11.0242 6.12494 11.0022 6.50554C11 6.52644 11.011 6.54514 11.011 6.56714H10.989C10.989 6.54624 11 6.52644 10.9989 6.50444C10.9769 6.12384 10.7338 2.73474 8.9331 0.932938C7.6857 -0.311162 5.5132 -0.311162 4.2658 0.934038C3.64815 1.55364 3.30133 2.39282 3.30133 3.26769C3.30133 4.14255 3.64815 4.98174 4.2658 5.60134C4.6585 5.99294 5.1293 6.30864 5.6254 6.56604H2.2C0.9867 6.56604 0 7.55274 0 8.76604V12.066H9.9V7.66604H12.1V12.066H22V8.76604C21.9991 8.18293 21.767 7.62397 21.3546 7.21176C20.9422 6.79954 20.3831 6.56772 19.8 6.56714ZM5.8223 4.04594C5.66957 3.8917 5.56579 3.69579 5.52397 3.4828C5.48214 3.2698 5.50414 3.0492 5.5872 2.84866C5.67026 2.64812 5.81068 2.47657 5.99086 2.35552C6.17104 2.23448 6.38294 2.16932 6.6 2.16824C6.8948 2.16824 7.1709 2.28264 7.3788 2.48944C8.0278 3.13844 8.4062 4.30224 8.6086 5.27354C7.6395 5.07114 6.4669 4.69054 5.8223 4.04594ZM13.3914 5.27574C13.5938 4.30444 13.9722 3.13954 14.6212 2.49054C14.8291 2.28264 15.1063 2.16824 15.4 2.16824C15.6937 2.16824 15.9709 2.28264 16.1766 2.48834C16.6056 2.91844 16.6067 3.61694 16.1766 4.04594C15.5276 4.69604 14.3627 5.07444 13.3914 5.27574Z" fill="#494949"/>
</svg>
