<svg width="32" height="20" viewBox="0 0 32 20" fill="none" xmlns="http://www.w3.org/2000/svg">
<path d="M31.248 1.84C31.0048 1.69957 30.7289 1.62564 30.448 1.62564C30.1671 1.62564 29.8912 1.69957 29.648 1.84L24 4.624C23.9544 3.38171 23.4287 2.20556 22.5334 1.3431C21.6381 0.480648 20.4431 -0.00083484 19.2 1.08665e-06H4.8C3.52696 1.08665e-06 2.30606 0.505714 1.40589 1.40589C0.505713 2.30606 0 3.52696 0 4.8V14.4C0 15.673 0.505713 16.8939 1.40589 17.7941C2.30606 18.6943 3.52696 19.2 4.8 19.2H19.2C20.4431 19.2008 21.6381 18.7194 22.5334 17.8569C23.4287 16.9944 23.9544 15.8183 24 14.576L29.696 17.424C29.9141 17.5358 30.1549 17.596 30.4 17.6C30.6996 17.601 30.9934 17.5178 31.248 17.36C31.4786 17.2159 31.6686 17.0154 31.8002 16.7774C31.9318 16.5395 32.0005 16.2719 32 16V3.2C32.0005 2.92809 31.9318 2.66053 31.8002 2.42257C31.6686 2.18461 31.4786 1.98411 31.248 1.84ZM20.8 14.4C20.8 14.8243 20.6314 15.2313 20.3314 15.5314C20.0313 15.8314 19.6243 16 19.2 16H4.8C4.37565 16 3.96869 15.8314 3.66863 15.5314C3.36857 15.2313 3.2 14.8243 3.2 14.4V4.8C3.2 4.37565 3.36857 3.96869 3.66863 3.66863C3.96869 3.36857 4.37565 3.2 4.8 3.2H19.2C19.6243 3.2 20.0313 3.36857 20.3314 3.66863C20.6314 3.96869 20.8 4.37565 20.8 4.8V14.4ZM28.8 13.408L24 11.008V8.192L28.8 5.792V13.408Z" fill="#494949"/>
</svg>
