<svg width="38" height="27" viewBox="0 0 38 27" fill="none" xmlns="http://www.w3.org/2000/svg">
<path fill-rule="evenodd" clip-rule="evenodd" d="M36.385 2.5175C35.3542 0.684 34.2356 0.34675 31.958 0.2185C29.6828 0.064125 23.9614 0 19.0047 0C14.0386 0 8.31487 0.0641252 6.042 0.216125C3.76912 0.34675 2.64812 0.681625 1.60787 2.5175C0.54625 4.34862 0 7.50262 0 13.0554V13.0744C0 18.6034 0.54625 21.7811 1.60787 23.5933C2.64812 25.4268 3.76675 25.7593 6.03963 25.9136C8.31487 26.0466 14.0386 26.125 19.0047 26.125C23.9614 26.125 29.6827 26.0466 31.9604 25.916C34.238 25.7616 35.3566 25.4291 36.3874 23.5956C37.4585 21.7835 38 18.6057 38 13.0767V13.0578C38 7.50263 37.4585 4.34862 36.385 2.5175Z" fill="#F44336"/>
</svg>
