<svg width="27" height="28" viewBox="0 0 27 28" fill="none" xmlns="http://www.w3.org/2000/svg">
<path d="M16.0328 27.8287H10.968C10.6507 27.8287 10.3428 27.7203 10.0956 27.5214C9.84833 27.3225 9.67649 27.045 9.60858 26.735L9.04227 24.1136C8.2868 23.7825 7.57045 23.3686 6.90641 22.8794L4.35035 23.6933C4.0478 23.7898 3.72135 23.7799 3.42521 23.6653C3.12907 23.5506 2.88107 23.3381 2.72237 23.063L0.184394 18.6786C0.0273645 18.4033 -0.0315806 18.0828 0.0172029 17.7697C0.0659864 17.4565 0.21961 17.1691 0.452941 16.9546L2.43574 15.1458C2.34557 14.3264 2.34557 13.4995 2.43574 12.6801L0.452941 10.8755C0.21928 10.6609 0.065447 10.3732 0.0166555 10.0598C-0.032136 9.74629 0.0270083 9.42553 0.184394 9.15007L2.71681 4.76288C2.8755 4.48782 3.12351 4.27531 3.41965 4.16065C3.71579 4.04599 4.04223 4.03608 4.34478 4.13256L6.90085 4.94655C7.24036 4.69609 7.59378 4.46233 7.95834 4.25083C8.31037 4.05325 8.67214 3.87375 9.04227 3.71374L9.60997 1.09506C9.67756 0.785044 9.84907 0.507439 10.0961 0.308271C10.3431 0.109102 10.6507 0.000333897 10.968 0H16.0328C16.3501 0.000333897 16.6578 0.109102 16.9048 0.308271C17.1518 0.507439 17.3233 0.785044 17.3909 1.09506L17.9641 3.71513C18.3537 3.88767 18.735 4.08108 19.1037 4.29675C19.4474 4.49572 19.78 4.71418 20.1 4.94933L22.6575 4.13534C22.9598 4.03922 23.2859 4.04931 23.5818 4.16395C23.8776 4.27859 24.1254 4.4909 24.284 4.76566L26.8165 9.15286C27.1393 9.71917 27.0279 10.4358 26.5479 10.8768L24.5651 12.6857C24.6553 13.5051 24.6553 14.3319 24.5651 15.1513L26.5479 16.9602C27.0279 17.4027 27.1393 18.1179 26.8165 18.6842L24.284 23.0714C24.1253 23.3464 23.8773 23.5589 23.5812 23.6736C23.2851 23.7883 22.9586 23.7982 22.6561 23.7017L20.1 22.8877C19.4365 23.3766 18.7206 23.7901 17.9655 24.1205L17.3909 26.735C17.323 27.0448 17.1514 27.3221 16.9044 27.521C16.6574 27.7199 16.3499 27.8284 16.0328 27.8287ZM13.4949 8.34861C12.0187 8.34861 10.6031 8.935 9.55929 9.97877C8.51551 11.0226 7.92912 12.4382 7.92912 13.9143C7.92912 15.3905 8.51551 16.8061 9.55929 17.8499C10.6031 18.8937 12.0187 19.4801 13.4949 19.4801C14.971 19.4801 16.3867 18.8937 17.4304 17.8499C18.4742 16.8061 19.0606 15.3905 19.0606 13.9143C19.0606 12.4382 18.4742 11.0226 17.4304 9.97877C16.3867 8.935 14.971 8.34861 13.4949 8.34861Z" fill="white"/>
</svg>
