<svg width="183" height="74" viewBox="0 0 183 74" fill="none" xmlns="http://www.w3.org/2000/svg">
<path fill-rule="evenodd" clip-rule="evenodd" d="M70.1479 36.9524C70.1479 16.5443 54.4456 0 35.0739 0C15.7023 0 0 16.5443 0 36.9524C0 56.5881 14.3819 72.6673 32.7259 73.9059V45.3019C29.3501 44.2202 26.8552 40.9741 26.8552 36.9535C26.8552 32.3152 30.5236 28.4504 35.0739 28.4504C39.6242 28.4504 43.2926 32.3152 43.2926 36.9535C43.2926 40.9741 40.7977 44.2202 37.2752 45.3019V73.9059C55.6191 72.6673 70.1479 56.5881 70.1479 36.9524ZM87.4641 36.3337C86.757 35.7341 85.8769 35.4066 84.9692 35.4056C84.3819 35.4056 83.501 35.7149 83.501 36.6419C83.501 37.4153 84.3819 37.7236 85.116 38.0352L85.9959 38.3434C87.9045 38.8064 89.3717 39.8902 89.3717 42.2083C89.3717 43.7551 89.078 45.1461 87.9045 46.2278C86.8768 47.1559 85.4097 47.621 84.0883 47.621C82.3275 47.621 80.5667 47.0023 79.2454 45.9195L80.7125 42.8281C81.5934 43.5993 82.6211 44.3727 83.9415 44.3727C84.8224 44.3727 85.7022 43.9098 85.7022 42.8281C85.7022 41.7464 84.2351 41.4348 83.501 41.2813C81.153 40.5079 79.6858 39.8902 79.6858 37.1071C79.6858 34.1692 81.7402 32.1595 84.5287 32.1595C85.8491 32.1595 87.6098 32.6235 88.7844 33.3958L87.4641 36.3337ZM94.655 47.157H91.2803V40.1996H90.2526V37.2617H91.2803V34.3239H94.655V37.2617H96.5626V40.1996H94.655V47.157ZM102.581 40.0449C103.901 40.0449 104.636 40.973 104.636 42.2094C104.636 43.4457 103.901 44.3738 102.581 44.3738C101.259 44.3738 100.379 43.4457 100.379 42.2094C100.379 40.973 101.259 40.0449 102.581 40.0449ZM107.862 37.2617H104.634V38.1898C103.9 37.4164 102.727 36.9524 101.7 36.9524C98.9117 36.9524 97.0041 39.4262 97.0041 42.2094C97.0041 44.9925 98.9117 47.4652 101.7 47.4652C102.874 47.4652 103.9 47.0023 104.489 46.0742H104.636V47.1559H107.863V37.2617H107.862ZM113.733 47.157H110.504V40.1996H109.331V37.2617H110.504V34.3239H113.733V37.2617H115.641V40.1996H113.733V47.157ZM119.457 40.8183C119.604 39.7345 120.484 39.2715 121.511 39.2715C122.392 39.2715 123.126 39.8902 123.272 40.8183H119.457ZM126.501 42.364C126.501 39.1179 124.593 36.9524 121.218 36.9524C118.137 36.9524 116.08 38.9632 116.08 42.2094C116.08 45.6123 118.429 47.4652 121.51 47.4652C123.713 47.4652 125.767 46.3836 126.352 44.0644H123.124C122.685 44.6832 122.243 44.9925 121.509 44.9925C120.189 44.9925 119.455 44.2191 119.455 42.8281H126.5V42.364H126.501ZM137.947 41.1277H138.239C139.415 41.1277 141.176 40.973 141.176 42.6745C141.176 44.3738 139.415 44.2191 138.387 44.2191H137.946V41.1277H137.947ZM139.854 47.157C142.349 47.157 144.845 46.2289 144.845 43.1374C144.845 41.1277 143.964 39.7345 142.056 39.4262C143.23 38.8075 143.523 37.7247 143.523 36.3348C143.523 33.5516 141.908 32.6246 139.415 32.6246H134.277V47.1581H139.854V47.157ZM137.947 35.5613H138.239C139.12 35.5613 140.296 35.5613 140.296 36.9524C140.296 38.1898 139.267 38.3445 138.388 38.3445H137.947V35.5613ZM151.595 40.0449C152.916 40.0449 153.796 40.973 153.796 42.2094C153.796 43.4457 152.915 44.3738 151.595 44.3738C150.276 44.3738 149.395 43.4457 149.395 42.2094C149.395 40.973 150.275 40.0449 151.595 40.0449ZM157.026 37.2617H153.65V38.1898C152.916 37.4164 151.742 36.9524 150.716 36.9524C147.927 36.9524 146.02 39.4262 146.02 42.2094C146.02 44.9925 147.927 47.4652 150.716 47.4652C151.889 47.4652 153.065 47.0023 153.65 46.0742V47.1559H157.026V37.2617ZM162.455 38.4981H162.602C163.336 37.2617 164.217 36.9524 165.536 36.9524C168.031 36.9524 169.059 38.6528 169.059 40.973V47.157H165.829V42.364C165.829 41.4359 165.977 39.7356 164.216 39.7356C162.893 39.7356 162.455 40.8194 162.455 42.0558V47.157H159.225V37.2617H162.455V38.4981ZM174.636 40.8183L178.158 37.2617H182.707L178.011 41.9011L183 47.157H178.304L174.636 43.1374V47.157H171.26V31.0767H174.636V40.8183ZM84.8224 63.0826C86.1437 63.0826 87.0236 64.1642 87.0236 65.4006C87.0236 66.6369 86.1427 67.565 84.8224 67.565C83.5021 67.565 82.768 66.6369 82.768 65.4006C82.768 64.1642 83.5021 63.0826 84.8224 63.0826ZM84.8224 60.1458C81.8881 60.1458 79.2464 61.9987 79.2464 65.4017C79.2464 68.8047 81.8881 70.6576 84.8224 70.6576C87.9045 70.6576 90.5462 68.8047 90.5462 65.4017C90.5462 61.9987 87.9045 60.1458 84.8224 60.1458ZM95.6827 70.3482H92.3091V63.3908H91.1345V60.453H92.3091V59.2166C92.3091 57.8234 92.4559 56.7417 93.3357 55.66C94.0678 54.732 95.3902 54.1132 96.5637 54.1132C97.1509 54.1132 97.5903 54.2701 98.0318 54.4237V57.5151C97.5903 57.3604 97.2978 57.2047 96.8563 57.2047C95.9753 57.2047 95.6827 57.6698 95.6827 58.7515V60.453H98.0318V63.3908H95.6827V70.3482ZM105.515 55.8147H109.038V70.3482H105.515V55.8147ZM114.761 61.6904C115.495 60.4541 116.522 60.1458 117.842 60.1458C120.337 60.1458 121.364 61.8451 121.364 64.1653V70.3493H117.989V65.5564C117.989 64.6283 118.138 62.9279 116.523 62.9279C115.054 62.9279 114.762 64.0117 114.762 65.2481V70.3493H111.386V60.4541H114.762V61.6904H114.761ZM128.555 63.0826C129.876 63.0826 130.756 64.1642 130.756 65.4006C130.756 66.6369 129.875 67.565 128.555 67.565C127.236 67.565 126.353 66.6369 126.353 65.4006C126.353 64.1642 127.235 63.0826 128.555 63.0826ZM130.61 70.3482H133.986V54.2701H130.61V61.3811C129.876 60.453 128.702 60.1447 127.676 60.1447C124.887 60.1447 122.979 62.4627 122.979 65.4006C122.979 68.1837 124.887 70.6565 127.676 70.6565C128.849 70.6565 130.023 70.1935 130.61 69.2654V70.3482ZM136.039 60.4541H139.415V70.3493H136.039V60.4541ZM139.562 56.5881C139.562 57.6698 138.681 58.5979 137.654 58.5979C136.627 58.5979 135.893 57.6698 135.893 56.5881C135.893 55.5065 136.627 54.5784 137.654 54.5784C138.681 54.5784 139.562 55.5065 139.562 56.5881ZM146.458 63.0826C147.78 63.0826 148.66 64.1642 148.66 65.4006C148.66 66.6369 147.779 67.565 146.458 67.565C145.138 67.565 144.403 66.6369 144.403 65.4006C144.403 64.1642 145.139 63.0826 146.458 63.0826ZM151.888 60.4541H148.514V61.3822C147.78 60.4541 146.754 60.1458 145.578 60.1458C142.79 60.1458 140.882 62.4638 140.882 65.4017C140.882 68.1848 142.79 70.6576 145.578 70.6576C146.754 70.6576 147.927 70.1946 148.514 69.2665V70.3482H151.888V60.4541Z" fill="#B9C9FF"/>
</svg>
