<svg width="31" height="42" viewBox="0 0 31 42" fill="none" xmlns="http://www.w3.org/2000/svg">
<path d="M15.2727 26.7273C17.298 26.7273 19.2404 25.9227 20.6725 24.4906C22.1045 23.0585 22.9091 21.1162 22.9091 19.0909V7.63636C22.9091 5.61107 22.1045 3.66874 20.6725 2.23664C19.2404 0.804543 17.298 0 15.2727 0C13.2474 0 11.3051 0.804543 9.873 2.23664C8.44091 3.66874 7.63636 5.61107 7.63636 7.63636V19.0909C7.63636 21.1162 8.44091 23.0585 9.873 24.4906C11.3051 25.9227 13.2474 26.7273 15.2727 26.7273ZM11.4545 7.63636C11.4545 6.62372 11.8568 5.65255 12.5729 4.9365C13.2889 4.22045 14.2601 3.81818 15.2727 3.81818C16.2854 3.81818 17.2565 4.22045 17.9726 4.9365C18.6886 5.65255 19.0909 6.62372 19.0909 7.63636V19.0909C19.0909 20.1036 18.6886 21.0747 17.9726 21.7908C17.2565 22.5068 16.2854 22.9091 15.2727 22.9091C14.2601 22.9091 13.2889 22.5068 12.5729 21.7908C11.8568 21.0747 11.4545 20.1036 11.4545 19.0909V7.63636ZM30.5455 19.0909C30.5455 18.5846 30.3443 18.099 29.9863 17.741C29.6283 17.383 29.1427 17.1818 28.6364 17.1818C28.13 17.1818 27.6445 17.383 27.2864 17.741C26.9284 18.099 26.7273 18.5846 26.7273 19.0909C26.7273 22.1288 25.5205 25.0424 23.3723 27.1905C21.2242 29.3386 18.3107 30.5455 15.2727 30.5455C12.2348 30.5455 9.32128 29.3386 7.17314 27.1905C5.025 25.0424 3.81818 22.1288 3.81818 19.0909C3.81818 18.5846 3.61705 18.099 3.25902 17.741C2.901 17.383 2.41541 17.1818 1.90909 17.1818C1.40277 17.1818 0.917184 17.383 0.55916 17.741C0.201136 18.099 0 18.5846 0 19.0909C0.00337106 22.8085 1.36256 26.3972 3.82276 29.1842C6.28296 31.9713 9.67523 33.7653 13.3636 34.23V38.1818H9.54545C9.03913 38.1818 8.55355 38.383 8.19552 38.741C7.8375 39.099 7.63636 39.5846 7.63636 40.0909C7.63636 40.5972 7.8375 41.0828 8.19552 41.4408C8.55355 41.7989 9.03913 42 9.54545 42H21C21.5063 42 21.9919 41.7989 22.3499 41.4408C22.708 41.0828 22.9091 40.5972 22.9091 40.0909C22.9091 39.5846 22.708 39.099 22.3499 38.741C21.9919 38.383 21.5063 38.1818 21 38.1818H17.1818V34.23C20.8702 33.7653 24.2625 31.9713 26.7227 29.1842C29.1829 26.3972 30.5421 22.8085 30.5455 19.0909Z" fill="white"/>
</svg>
