<svg width="353" height="274" viewBox="0 0 353 274" fill="none" xmlns="http://www.w3.org/2000/svg">
<path fill-rule="evenodd" clip-rule="evenodd" d="M322.304 273.879H30.6956C22.5547 273.879 14.7471 270.673 8.99055 264.966C3.234 259.259 0 251.519 0 243.448V30.431C0 22.3602 3.234 14.62 8.99055 8.91304C14.7471 3.20612 22.5547 0 30.6956 0H322.304C330.445 0 338.253 3.20612 344.009 8.91304C349.766 14.62 353 22.3602 353 30.431V243.448C353 251.519 349.766 259.259 344.009 264.966C338.253 270.673 330.445 273.879 322.304 273.879ZM84.413 15.2155H30.6956C26.6251 15.2155 22.7214 16.8186 19.8431 19.672C16.9648 22.5255 15.3478 26.3956 15.3478 30.431V45.6465H84.413V15.2155ZM168.826 15.2155H99.7608V45.6465H168.826V15.2155ZM253.239 15.2155H184.174V45.6465H253.239V15.2155ZM337.652 30.431C337.652 26.3956 336.035 22.5255 333.157 19.672C330.279 16.8186 326.375 15.2155 322.304 15.2155H268.587V45.6465H337.652V30.431ZM337.652 60.8621H15.3478V213.017H337.652V60.8621ZM337.652 228.233H268.587V258.664H253.239V228.233H184.174V258.664H168.826V228.233H99.7608V258.664H84.413V228.233H15.3478V243.448C15.3478 247.484 16.9648 251.354 19.8431 254.207C22.7214 257.061 26.6251 258.664 30.6956 258.664H322.304C326.375 258.664 330.279 257.061 333.157 254.207C336.035 251.354 337.652 247.484 337.652 243.448V228.233ZM158.244 180.798C156.911 181.922 155.227 182.554 153.478 182.586C151.443 182.586 149.491 181.785 148.052 180.358C146.613 178.931 145.804 176.996 145.804 174.978V98.9008C145.804 96.8831 146.613 94.9481 148.052 93.5213C149.491 92.0946 151.443 91.2931 153.478 91.2931C155.113 91.2931 156.548 91.9169 157.799 92.7842L217.433 129.849C218.921 130.36 220.212 131.317 221.127 132.587C222.043 133.857 222.538 135.378 222.543 136.94C222.53 138.104 222.242 139.249 221.702 140.284C221.163 141.318 220.386 142.213 219.435 142.896L158.244 180.798Z" fill="#BEBEBE"/>
</svg>
