<svg width="98" height="31" viewBox="0 0 98 31" fill="none" xmlns="http://www.w3.org/2000/svg">
<path d="M42.4184 30.4169H34.4429L39.4188 0.548849H47.359L42.4184 30.4169ZM71.215 1.26898C68.9649 0.420215 66.5707 -0.0101846 64.157 0.000182931C56.3227 0.000182931 50.7821 4.08089 50.7468 9.87618C50.7468 14.1626 54.6993 16.5631 57.8048 18.0033C60.9103 19.4436 61.8985 20.4037 61.8985 21.7068C61.8985 23.6957 59.4282 24.6216 57.1343 24.6216C54.5576 24.6882 52.0026 24.1469 49.6881 23.0442L48.6295 22.5641L47.5002 29.4224C50.3394 30.4753 53.3543 31.0101 56.3932 30.9999C64.7216 30.9999 70.1563 26.9877 70.2269 20.7124C70.2269 17.2832 68.1095 14.7113 63.5571 12.5852C60.7692 11.2136 59.0753 10.2877 59.0753 8.91602C59.0753 7.54435 60.4869 6.34414 63.6277 6.34414C65.6672 6.27207 67.6964 6.65937 69.5564 7.47577L70.2974 7.78439L71.3561 1.33756L71.215 1.26898ZM81.8019 19.8208H88.4012L86.5661 11.1793L86.0014 8.60739C85.6133 9.73902 84.9427 11.5222 84.978 11.4879C85.0133 11.4536 82.4372 18.1062 81.8019 19.8208ZM91.6125 0.548849L98 30.4169H90.6597C90.6597 30.4169 89.9186 26.9877 89.7069 25.9247H79.5081C79.1905 26.7134 77.8142 30.4169 77.8142 30.4169H69.4858L81.3079 2.98356C81.611 2.18139 82.1831 1.50166 82.932 1.0538C83.681 0.605944 84.5633 0.416 85.4368 0.514557L91.6125 0.548849ZM27.7731 0.548849L20.0094 20.9181L19.1271 16.7688C17.21 11.4088 13.2937 6.9425 8.15196 4.25235L15.2099 30.3826H23.6089L36.1016 0.548849H27.7731ZM12.7749 0.548849H0V1.13181C4.28793 1.99624 8.29001 3.8757 11.6512 6.60345C15.0124 9.33119 17.6288 12.8229 19.2683 16.7688L16.5157 3.05214C16.3462 2.28669 15.893 1.60856 15.2422 1.14692C14.5914 0.685287 13.7886 0.472412 12.9867 0.548849H12.7749Z" fill="#B9C9FF"/>
</svg>
