<svg width="30" height="27" viewBox="0 0 30 27" fill="none" xmlns="http://www.w3.org/2000/svg">
<path d="M3.00005 0H4.50008C6.08111 0 7.37713 1.22402 7.49263 2.77505L7.50013 3.00005V24.0004C7.49964 24.7569 7.2135 25.4854 6.69896 26.04C6.18443 26.5946 5.47944 26.9344 4.72508 26.9915L4.50008 27.0005H3.00005C2.24328 27.0004 1.51447 26.7144 0.959566 26.1998C0.404659 25.6852 0.0646083 24.9801 0.00750031 24.2254L0 24.0004V3.00005C0 1.41903 1.22402 0.123002 2.77505 0.00750031L3.00005 0H4.50008H3.00005ZM12.0002 0H13.5002C15.0813 0 16.3773 1.22402 16.4928 2.77505L16.5003 3.00005V24.0004C16.4998 24.7569 16.2137 25.4854 15.6991 26.04C15.1846 26.5946 14.4796 26.9344 13.7252 26.9915L13.5002 27.0005H12.0002C11.2434 27.0004 10.5146 26.7144 9.95973 26.1998C9.40482 25.6852 9.06477 24.9801 9.00766 24.2254L9.00016 24.0004V3.00005C9.00016 1.41903 10.2242 0.123002 11.7752 0.00750031L12.0002 0H13.5002H12.0002ZM22.4614 3.00005C23.7214 3.00005 24.8734 3.79657 25.2965 5.01909L25.367 5.25459L29.8895 22.8724C30.0778 23.6054 29.9821 24.3825 29.6216 25.0479C29.261 25.7133 28.6624 26.2179 27.9455 26.4605L27.7295 26.525L26.276 26.897C25.5464 27.0833 24.7734 26.9888 24.1102 26.632C23.447 26.2753 22.9421 25.6824 22.6954 24.9709L22.6249 24.7384L18.1008 7.12063C17.9127 6.38724 18.0088 5.60984 18.37 4.94437C18.7311 4.2789 19.3304 3.77457 20.0479 3.53256L20.2624 3.46806L21.7144 3.09606C21.9634 3.03155 22.2154 3.00005 22.4614 3.00005ZM4.50008 2.25004H3.00005C2.82459 2.25027 2.65474 2.3119 2.51995 2.42422C2.38515 2.53655 2.29391 2.69251 2.26204 2.86505L2.25004 3.00005V24.0004C2.25004 24.3664 2.51555 24.6754 2.86505 24.7384L3.00005 24.7504H4.50008C4.86759 24.7504 5.17509 24.4834 5.23809 24.1354L5.25009 24.0004V3.00005C5.24986 2.82459 5.18824 2.65474 5.07591 2.51995C4.96358 2.38515 4.80763 2.29391 4.63508 2.26204L4.50008 2.25004ZM13.5002 2.25004H12.0002C11.8248 2.25027 11.6549 2.3119 11.5201 2.42422C11.3853 2.53655 11.2941 2.69251 11.2622 2.86505L11.2502 3.00005V24.0004C11.2502 24.3664 11.5157 24.6754 11.8652 24.7384L12.0002 24.7504H13.5002C13.8677 24.7504 14.1753 24.4834 14.2383 24.1354L14.2503 24.0004V3.00005C14.25 2.82459 14.1884 2.65474 14.0761 2.51995C13.9637 2.38515 13.8078 2.29391 13.6352 2.26204L13.5002 2.25004ZM22.4629 5.25009L22.3684 5.25609L22.2739 5.27559L20.8219 5.6461C20.6537 5.68833 20.5054 5.78776 20.4025 5.92734C20.2996 6.06692 20.2485 6.23796 20.2579 6.41111L20.2804 6.56112L24.8044 24.1789C24.8459 24.3396 24.9396 24.4821 25.0707 24.5839C25.2018 24.6856 25.363 24.7411 25.529 24.7414L25.6235 24.7369L25.7165 24.7189L27.1715 24.3439C27.3412 24.3002 27.4903 24.1984 27.5928 24.0561C27.6953 23.9139 27.7447 23.7403 27.7325 23.5654L27.71 23.4334L23.1874 5.8126C23.1457 5.65201 23.052 5.50975 22.9209 5.408C22.7899 5.30624 22.6288 5.25072 22.4629 5.25009Z" fill="#494949"/>
</svg>
