<svg width="28" height="28" viewBox="0 0 28 28" fill="none" xmlns="http://www.w3.org/2000/svg">
<path d="M14 0C6.265 0 0 6.265 0 14C0 21.735 6.265 28 14 28C21.735 28 28 21.735 28 14C28 6.265 21.735 0 14 0ZM14 4.2C16.317 4.2 18.2 6.083 18.2 8.4C18.2 10.724 16.317 12.6 14 12.6C11.683 12.6 9.8 10.724 9.8 8.4C9.8 6.083 11.683 4.2 14 4.2ZM14 24.08C10.493 24.08 7.413 22.288 5.6 19.572C5.635 16.793 11.207 15.26 14 15.26C16.793 15.26 22.358 16.793 22.4 19.572C20.587 22.288 17.507 24.08 14 24.08Z" fill="#494949"/>
</svg>
