<svg width="9" height="40" viewBox="0 0 9 40" fill="none" xmlns="http://www.w3.org/2000/svg">
<path d="M4.44445 8.88889C5.32347 8.88889 6.18276 8.62823 6.91365 8.13987C7.64453 7.6515 8.21419 6.95738 8.55058 6.14526C8.88697 5.33315 8.97498 4.43952 8.80349 3.57738C8.632 2.71524 8.20871 1.92332 7.58714 1.30175C6.96558 0.680183 6.17365 0.256891 5.31151 0.0854007C4.44938 -0.0860891 3.55575 0.00192569 2.74363 0.338315C1.93152 0.674705 1.23739 1.24436 0.749027 1.97525C0.260665 2.70613 2.39509e-06 3.56542 2.39509e-06 4.44445C2.39509e-06 5.62319 0.468256 6.75365 1.30175 7.58714C2.13525 8.42064 3.26571 8.88889 4.44445 8.88889ZM4.44445 31.1111C3.56542 31.1111 2.70613 31.3718 1.97525 31.8601C1.24436 32.3485 0.674705 33.0426 0.338315 33.8547C0.00192569 34.6669 -0.0860891 35.5605 0.0854007 36.4226C0.256891 37.2848 0.680184 38.0767 1.30175 38.6982C1.92332 39.3198 2.71524 39.7431 3.57738 39.9146C4.43952 40.0861 5.33314 39.9981 6.14526 39.6617C6.95738 39.3253 7.6515 38.7556 8.13987 38.0248C8.62823 37.2939 8.88889 36.4346 8.88889 35.5556C8.88889 34.3768 8.42064 33.2464 7.58714 32.4129C6.75365 31.5794 5.62319 31.1111 4.44445 31.1111ZM4.44445 15.5556C3.56542 15.5556 2.70613 15.8162 1.97525 16.3046C1.24436 16.7929 0.674705 17.4871 0.338315 18.2992C0.00192569 19.1113 -0.0860891 20.0049 0.0854007 20.8671C0.256891 21.7292 0.680184 22.5211 1.30175 23.1427C1.92332 23.7643 2.71524 24.1876 3.57738 24.359C4.43952 24.5305 5.33314 24.4425 6.14526 24.1061C6.95738 23.7697 7.6515 23.2001 8.13987 22.4692C8.62823 21.7383 8.88889 20.879 8.88889 20C8.88889 18.8213 8.42064 17.6908 7.58714 16.8573C6.75365 16.0238 5.62319 15.5556 4.44445 15.5556Z" fill="white"/>
</svg>
