<svg width="60" height="60" viewBox="0 0 60 60" fill="none" xmlns="http://www.w3.org/2000/svg">
<path d="M44.007 0C54.21 0 59.97 5.787 60 15.99V44.01C60 54.21 54.21 60 44.007 60H15.99C5.787 60 0 54.21 0 44.01V15.99C0 5.787 5.787 0 15.99 0H44.007ZM31.5 12.39C30.657 11.88 29.637 11.88 28.83 12.39C28.017 12.897 27.57 13.83 27.657 14.76V45.33C27.81 46.62 28.887 47.58 30.147 47.58C31.44 47.58 32.517 46.62 32.637 45.33V14.76C32.757 13.83 32.31 12.897 31.5 12.39ZM17.49 22.23C16.68 21.72 15.657 21.72 14.85 22.23C14.037 22.74 13.59 23.667 13.68 24.6V45.33C13.797 46.62 14.877 47.58 16.167 47.58C17.46 47.58 18.537 46.62 18.657 45.33V24.6C18.75 23.667 18.297 22.74 17.49 22.23ZM45.267 33.12C44.46 32.61 43.44 32.61 42.6 33.12C41.787 33.63 41.34 34.527 41.46 35.49V45.33C41.58 46.62 42.657 47.58 43.95 47.58C45.21 47.58 46.287 46.62 46.44 45.33V35.49C46.527 34.527 46.08 33.63 45.267 33.12Z" fill="white"/>
</svg>
