<svg width="25" height="19" viewBox="0 0 25 19" fill="none" xmlns="http://www.w3.org/2000/svg">
<path d="M15.0543 5.06255C15.0525 5.20991 15.0423 5.35704 15.0236 5.50322C15.0133 5.56471 15.0031 5.61595 14.9928 5.66719C14.9915 5.66853 14.9904 5.67012 14.9896 5.67188C14.9889 5.67364 14.9885 5.67553 14.9885 5.67744C14.9885 5.67935 14.9889 5.68124 14.9896 5.683C14.9904 5.68476 14.9915 5.68635 14.9928 5.68769H14.9826C14.9287 5.91113 14.8496 6.12773 14.7469 6.33332C14.5072 6.76456 14.1566 7.12387 13.7313 7.37404C13.3061 7.62421 12.8217 7.75612 12.3283 7.75612C11.835 7.75612 11.3506 7.62421 10.9253 7.37404C10.5001 7.12387 10.1494 6.76456 9.90977 6.33332C9.80646 6.11974 9.72409 5.89666 9.66382 5.66719C9.66356 5.61113 9.65314 5.55557 9.63308 5.50322C9.64333 5.49297 9.64333 5.49297 9.63308 5.49297C9.56081 5.01134 9.61651 4.51917 9.79459 4.06588C9.97267 3.61258 10.2669 3.2141 10.6476 2.91046C11.0526 2.60312 11.5349 2.4142 12.0408 2.36474C12.5468 2.31527 13.0565 2.4072 13.5133 2.63029C13.9701 2.85337 14.356 3.19887 14.6281 3.62829C14.9002 4.05772 15.0477 4.55423 15.0543 5.06255ZM18.7949 16.3047C18.7969 16.679 18.766 17.0528 18.7026 17.4218C18.695 17.4449 18.6915 17.4692 18.6924 17.4935C16.7172 18.4841 14.538 19 12.3283 19C10.1186 19 7.93945 18.4841 5.96426 17.4935C5.96513 17.4692 5.96166 17.4449 5.95401 17.4218C5.80142 16.5268 5.83837 15.6098 6.06249 14.73C6.28661 13.8502 6.6929 13.0273 7.25508 12.3144C7.81726 11.6016 8.52281 11.0146 9.3261 10.5916C10.1294 10.1686 11.0125 9.91889 11.9184 9.85866H11.9594C12.2046 9.83133 12.4521 9.83133 12.6973 9.85866H12.7382C14.3782 9.9616 15.9172 10.6854 17.0424 11.8829C18.1675 13.0804 18.7942 14.6616 18.7949 16.3047ZM7.55271 5.06255C7.55064 5.11061 7.55408 5.15875 7.56296 5.20603C7.22188 5.36135 6.85145 5.44172 6.47667 5.44173C5.98506 5.4408 5.5029 5.30669 5.08141 5.05366C4.65992 4.80064 4.31486 4.43814 4.0829 4.00471C3.85094 3.57127 3.74074 3.08308 3.76402 2.59203C3.7873 2.10098 3.94318 1.62541 4.21511 1.21586C4.48703 0.80631 4.86483 0.478083 5.30837 0.266061C5.7519 0.0540398 6.24459 -0.0338557 6.73407 0.0117179C7.22356 0.0572915 7.69155 0.234631 8.08832 0.524889C8.48509 0.815146 8.7958 1.20748 8.98745 1.66019C8.53164 2.10157 8.16963 2.63042 7.92309 3.21505C7.67656 3.79969 7.55059 4.42807 7.55271 5.06255Z" fill="white"/>
<path d="M8.9876 8.46516C7.45374 9.12392 6.14631 10.2174 5.22664 11.6105C4.30697 13.0037 3.81531 14.6356 3.81231 16.3049V16.4279C2.52281 16.1906 1.27592 15.7623 0.112749 15.1572C0.0367768 14.7655 -0.000977323 14.3674 1.92221e-05 13.9684C0.000290941 12.2507 0.682754 10.6035 1.89733 9.3889C3.11191 8.17432 4.75914 7.49186 6.47681 7.49159C7.14253 7.48619 7.80436 7.59361 8.4342 7.80928C8.59299 8.04833 8.77867 8.2684 8.9876 8.46516ZM20.9061 2.71598C20.9063 3.074 20.8358 3.42854 20.6989 3.75933C20.5619 4.09012 20.3612 4.39069 20.108 4.64385C19.8548 4.897 19.5543 5.09779 19.2235 5.23474C18.8927 5.37169 18.5382 5.4421 18.1801 5.44197C17.8053 5.44196 17.4349 5.36158 17.0938 5.20626C17.1027 5.15899 17.1062 5.11085 17.1041 5.06279C17.1062 4.42831 16.9802 3.79992 16.7337 3.21529C16.4872 2.63065 16.1252 2.1018 15.6693 1.66042C15.9149 1.08262 16.3523 0.607233 16.9077 0.314526C17.4631 0.021818 18.1025 -0.070283 18.718 0.053769C19.3334 0.177821 19.8872 0.510427 20.2858 0.99544C20.6845 1.48045 20.9036 2.08816 20.9061 2.71598ZM24.6569 13.9684C24.6579 14.3674 24.6202 14.7655 24.5442 15.1572C23.381 15.7623 22.1341 16.1906 20.8446 16.4279V16.3049C20.8416 14.6356 20.35 13.0037 19.4303 11.6105C18.5106 10.2174 17.2032 9.12392 15.6693 8.46516C15.8783 8.2684 16.064 8.04833 16.2227 7.80928C16.8526 7.59361 17.5144 7.48619 18.1801 7.49159C19.8978 7.49186 21.545 8.17432 22.7596 9.3889C23.9742 10.6035 24.6567 12.2507 24.6569 13.9684Z" fill="white"/>
</svg>
