<svg width="45" height="27" viewBox="0 0 45 27" fill="none" xmlns="http://www.w3.org/2000/svg">
<path d="M43.9425 2.5875C43.6005 2.39002 43.2125 2.28606 42.8175 2.28606C42.4225 2.28606 42.0345 2.39002 41.6925 2.5875L33.75 6.5025C33.6859 4.75553 32.9465 3.10156 31.6875 1.88874C30.4286 0.675911 28.7481 -0.00117399 27 1.5281e-06H6.75C4.95979 1.5281e-06 3.2429 0.71116 1.97703 1.97703C0.711159 3.2429 0 4.95979 0 6.75V20.25C0 22.0402 0.711159 23.7571 1.97703 25.023C3.2429 26.2888 4.95979 27 6.75 27H27C28.7481 27.0012 30.4286 26.3241 31.6875 25.1113C32.9465 23.8984 33.6859 22.2445 33.75 20.4975L41.76 24.5025C42.0667 24.6597 42.4054 24.7444 42.75 24.75C43.1713 24.7514 43.5844 24.6344 43.9425 24.4125C44.2668 24.2098 44.534 23.9279 44.719 23.5933C44.9041 23.2586 45.0008 22.8824 45 22.5V4.5C45.0008 4.11763 44.9041 3.74137 44.719 3.40674C44.534 3.07211 44.2668 2.79016 43.9425 2.5875ZM29.25 20.25C29.25 20.8467 29.0129 21.419 28.591 21.841C28.169 22.2629 27.5967 22.5 27 22.5H6.75C6.15326 22.5 5.58097 22.2629 5.15901 21.841C4.73705 21.419 4.5 20.8467 4.5 20.25V6.75C4.5 6.15326 4.73705 5.58097 5.15901 5.15901C5.58097 4.73705 6.15326 4.5 6.75 4.5H27C27.5967 4.5 28.169 4.73705 28.591 5.15901C29.0129 5.58097 29.25 6.15326 29.25 6.75V20.25ZM40.5 18.855L33.75 15.48V11.52L40.5 8.145V18.855Z" fill="white"/>
</svg>
