<svg width="32" height="32" viewBox="0 0 32 32" fill="none" xmlns="http://www.w3.org/2000/svg">
<path fill-rule="evenodd" clip-rule="evenodd" d="M15.9953 1.00391C9.94557 1.00391 5.00582 5.95265 5.00582 12.0013V16.0031C5.00582 19.079 3.80089 21.6788 3.31391 22.6528C2.33596 24.6127 3.81388 26.9926 6.00177 26.9926H11.0995C11.5635 29.2704 13.5894 30.9983 15.9993 30.9983C18.4091 30.9983 20.435 29.2704 20.899 26.9926H25.9967C28.1846 26.9926 29.6525 24.6087 28.6766 22.6528C28.1926 21.6828 26.9947 19.08 26.9947 16.0031V12.0013C26.9947 5.95165 22.0449 1.00391 15.9953 1.00391ZM15.9953 2.9958C20.955 2.9958 25.0008 7.04059 25.0008 12.0013V16.0031C25.0008 19.5929 26.3627 22.4948 26.8907 23.5527C27.2407 24.2547 26.7797 25.0007 25.9967 25.0007H6.00177C5.21281 25.0007 4.74984 24.2577 5.10182 23.5537C5.62879 22.4968 6.99772 19.5939 6.99772 16.0031V12.0013C6.99772 7.03959 11.0345 2.9958 15.9953 2.9958ZM15.9953 4.9957C12.1355 4.9957 8.99762 8.14053 8.99762 12.0013C8.99762 12.2665 9.10297 12.5209 9.29049 12.7084C9.47802 12.8959 9.73236 13.0013 9.99756 13.0013C10.2628 13.0013 10.5171 12.8959 10.7046 12.7084C10.8922 12.5209 10.9975 12.2665 10.9975 12.0013C10.9929 11.3434 11.1189 10.6912 11.3684 10.0824C11.6178 9.47361 11.9857 8.92042 12.4506 8.45493C12.9155 7.98944 13.4683 7.62092 14.0768 7.37075C14.6852 7.12058 15.3374 6.99374 15.9953 6.99759C16.2607 6.99759 16.5153 6.89214 16.703 6.70442C16.8907 6.51671 16.9962 6.26211 16.9962 5.99665C16.9962 5.73118 16.8907 5.47658 16.703 5.28887C16.5153 5.10115 16.2607 4.9957 15.9953 4.9957ZM9.99956 14.9992C9.73436 14.9992 9.48002 15.1045 9.29249 15.2921C9.10497 15.4796 8.99962 15.7339 8.99962 15.9991C8.99962 16.2643 9.10497 16.5187 9.29249 16.7062C9.48002 16.8937 9.73436 16.9991 9.99956 16.9991C10.2648 16.9991 10.5191 16.8937 10.7066 16.7062C10.8942 16.5187 10.9995 16.2643 10.9995 15.9991C10.9995 15.7339 10.8942 15.4796 10.7066 15.2921C10.5191 15.1045 10.2648 14.9992 9.99956 14.9992ZM13.1794 26.9926H18.8191C18.6171 27.5793 18.2367 28.0882 17.731 28.4479C17.2253 28.8076 16.6198 29.0001 15.9993 28.9984C15.3787 29.0001 14.7732 28.8076 14.2675 28.4479C13.7619 28.0882 13.3814 27.5793 13.1794 26.9926Z" fill="#494949"/>
</svg>
