<svg width="32" height="32" viewBox="0 0 32 32" fill="none" xmlns="http://www.w3.org/2000/svg">
<path fill-rule="evenodd" clip-rule="evenodd" d="M15.9889 0.964844C9.93922 0.964844 4.99948 6.0566 4.99948 12.2801V16.3975C4.99948 19.5622 3.79454 22.2372 3.30756 23.2393C2.32961 25.2559 3.80754 27.7045 5.99542 27.7045H11.0932C11.5571 30.0482 13.583 31.8261 15.9929 31.8261C18.4028 31.8261 20.4287 30.0482 20.8926 27.7045H25.9904C28.1783 27.7045 29.6462 25.2518 28.6702 23.2393C28.1863 22.2414 26.9883 19.5633 26.9883 16.3975V12.2801C26.9883 6.05557 22.0386 0.964844 15.9889 0.964844ZM15.9889 3.0143C20.9486 3.0143 24.9944 7.17598 24.9944 12.2801V16.3975C24.9944 20.0911 26.3564 23.0768 26.8843 24.1653C27.2343 24.8875 26.7733 25.6551 25.9904 25.6551H5.99542C5.20646 25.6551 4.74349 24.8906 5.09547 24.1663C5.62244 23.0788 6.99137 20.0921 6.99137 16.3975V12.2801C6.99137 7.17495 11.0282 3.0143 15.9889 3.0143ZM15.9889 5.07199C12.1291 5.07199 8.99127 8.30771 8.99127 12.2801C8.99127 12.5529 9.09662 12.8146 9.28415 13.0076C9.47167 13.2005 9.72601 13.3089 9.99122 13.3089C10.2564 13.3089 10.5108 13.2005 10.6983 13.0076C10.8858 12.8146 10.9912 12.5529 10.9912 12.2801C10.9865 11.6032 11.1126 10.9321 11.362 10.3057C11.6115 9.67931 11.9793 9.11013 12.4442 8.63119C12.9092 8.15225 13.4619 7.77308 14.0704 7.51568C14.6789 7.25828 15.331 7.12777 15.9889 7.13174C16.2544 7.13174 16.509 7.02324 16.6967 6.8301C16.8844 6.63696 16.9899 6.37501 16.9899 6.10187C16.9899 5.82873 16.8844 5.56677 16.6967 5.37364C16.509 5.1805 16.2544 5.07199 15.9889 5.07199ZM9.99322 15.3646C9.72801 15.3646 9.47367 15.473 9.28615 15.6659C9.09862 15.8588 8.99327 16.1205 8.99327 16.3934C8.99327 16.6663 9.09862 16.928 9.28615 17.1209C9.47367 17.3139 9.72801 17.4222 9.99322 17.4222C10.2584 17.4222 10.5128 17.3139 10.7003 17.1209C10.8878 16.928 10.9932 16.6663 10.9932 16.3934C10.9932 16.1205 10.8878 15.8588 10.7003 15.6659C10.5128 15.473 10.2584 15.3646 9.99322 15.3646ZM13.1731 27.7045H18.8128C18.6108 28.3082 18.2303 28.8318 17.7246 29.2019C17.219 29.572 16.6135 29.7701 15.9929 29.7684C15.3724 29.7701 14.7668 29.572 14.2612 29.2019C13.7555 28.8318 13.375 28.3082 13.1731 27.7045Z" fill="#898989"/>
</svg>
