<svg width="99" height="98" viewBox="0 0 99 98" fill="none" xmlns="http://www.w3.org/2000/svg">
<path fill-rule="evenodd" clip-rule="evenodd" d="M49.1531 94C74.0836 94 94.2937 73.8528 94.2937 49C94.2937 24.1472 74.0836 4 49.1531 4C24.2226 4 4.0125 24.1472 4.0125 49C4.0125 73.8528 24.2226 94 49.1531 94ZM49.1531 98C76.2996 98 98.3062 76.062 98.3062 49C98.3062 21.938 76.2996 0 49.1531 0C22.0066 0 0 21.938 0 49C0 76.062 22.0066 98 49.1531 98Z" fill="#9C9C9C"/>
<path d="M52.7736 33H45.9684V46.248H33V52.392H45.9684V65.64H52.7736V52.392H65.742V46.248H52.7736V33Z" fill="#9C9C9C"/>
</svg>
